# xmcd
#
# Track frame offsets:
#	150
#	20652
#	38826
#	56934
#
# Disc length: 1038 seconds
# Revision: 0
# Processed by: cddbd v1.5.2PL0 Copyright (c) Steve Scherf et al.
# Submitted via: dBpowerAMP V12.0
#
DISCID=32040c04
DTITLE=No Mercy - Where do you go (4 on 1)
DYEAR=1996
DGENRE=Eurodance
TTITLE0=Where do you go (Album Version)
TTITLE1=Please don't go
TTITLE2=Missing
TTITLE3=When I die
EXTD=
EXTT0=
EXTT1=
EXTT2=
EXTT3=
PLAYORDER=
